<?xml version="1.0" encoding="UTF-8"?>
<svg version="1.1" xmlns="http://www.w3.org/2000/svg" width="225" height="206">
<path d="M0 0 C74.25 0 148.5 0 225 0 C225 67.98 225 135.96 225 206 C150.75 206 76.5 206 0 206 C0 138.02 0 70.04 0 0 Z " fill="#FDFDFD" transform="translate(0,0)"/>
<path d="M0 0 C5.81030271 2.93059051 11.48441945 0.64980872 17.2890625 -1.21875 C17.92972656 -1.4353125 18.57039063 -1.651875 19.23046875 -1.875 C17.87521339 2.34275732 16.32846761 6.41921322 14.60546875 10.5 C13.93644531 12.08941406 13.93644531 12.08941406 13.25390625 13.7109375 C12.91617188 14.50757812 12.5784375 15.30421875 12.23046875 16.125 C15.53046875 16.125 18.83046875 16.125 22.23046875 16.125 C20.77112134 19.04369482 19.55547793 21.17689985 17.62109375 23.69921875 C16.8636084 24.69501953 16.8636084 24.69501953 16.09082031 25.7109375 C15.5594043 26.40445313 15.02798828 27.09796875 14.48046875 27.8125 C10.1942624 33.45912211 6.02618377 39.13176575 2.23046875 45.125 C1.07347364 41.65401466 1.40092433 40.97766875 2.6640625 37.67578125 C2.98310547 36.82822266 3.30214844 35.98066406 3.63085938 35.10742188 C3.97310547 34.22634766 4.31535156 33.34527344 4.66796875 32.4375 C5.00634766 31.54482422 5.34472656 30.65214844 5.69335938 29.73242188 C6.53079182 27.52678994 7.37956393 25.32546956 8.23046875 23.125 C5.26046875 23.125 2.29046875 23.125 -0.76953125 23.125 C-0.20346846 18.43476546 0.4158438 13.77999974 1.23046875 9.125 C-5.23197707 8.46874685 -5.23197707 8.46874685 -10.76953125 11.5 C-14.22002722 16.02877596 -14.41061723 19.54220957 -13.76953125 25.125 C-11.72438267 31.47162956 -8.33001466 35.20041437 -2.45703125 38.375 C-1.90015625 38.6225 -1.34328125 38.87 -0.76953125 39.125 C-1.64453125 43.875 -1.64453125 43.875 -2.76953125 46.125 C-9.22801886 45.72134452 -14.40086822 40.86064806 -18.58203125 36.25 C-24.24564049 28.15912966 -24.38870696 20.79366693 -23.76953125 11.125 C-23.25390625 8.703125 -23.25390625 8.703125 -22.76953125 7.125 C-28.72665986 12.76859553 -29.97295854 16.15927288 -30.76953125 24.125 C-32.41953125 23.795 -34.06953125 23.465 -35.76953125 23.125 C-36.34141435 8.84910345 -36.34141435 8.84910345 -32.76953125 4.125 C-23.38685652 -5.66046633 -11.63497209 -6.51114495 0 0 Z " fill="#EF8539" transform="translate(104.76953125,64.875)"/>
<path d="M0 0 C1.485 0.99 1.485 0.99 3 2 C3 2.66 3 3.32 3 4 C3.86625 3.7525 4.7325 3.505 5.625 3.25 C10.0724027 2.92056276 11.6076703 4.21075114 15 7 C18.55223381 10.92348865 18.56186672 14.04342028 18.41796875 19.17578125 C17.58506707 24.80370568 14.6082434 28.4340788 10.625 32.3125 C5.5225916 35.59261969 1.75388864 37.05032146 -4.25 37.3125 C-6.77497736 37.41044522 -6.77497736 37.41044522 -9 38 C-11.23886732 40.88679844 -11.23886732 40.88679844 -12 44 C-12.33 43.34 -12.66 42.68 -13 42 C-13.99 42 -14.98 42 -16 42 C-17.0625 40.1875 -17.0625 40.1875 -18 38 C-17.67 37.01 -17.34 36.02 -17 35 C-18.299375 34.7215625 -18.299375 34.7215625 -19.625 34.4375 C-24.81551847 32.22672361 -27.59043197 28.43470841 -30.375 23.625 C-31.69166581 18.09500358 -31.87316881 13.6560098 -29.1875 8.5625 C-26.90313127 5.88652521 -25.34770506 4.11638213 -21.73828125 3.8046875 C-20.53751953 3.83949219 -20.53751953 3.83949219 -19.3125 3.875 C-18.10013672 3.90207031 -18.10013672 3.90207031 -16.86328125 3.9296875 C-15.94095703 3.96449219 -15.94095703 3.96449219 -15 4 C-13.68465506 7.65857532 -14.34531691 10.08026481 -15.4375 13.75 C-15.72496094 14.73484375 -16.01242188 15.7196875 -16.30859375 16.734375 C-16.53675781 17.48203125 -16.76492187 18.2296875 -17 19 C-14.03 19 -11.06 19 -8 19 C-9.5739079 25.82026757 -11.72795558 32.38239489 -14 39 C-7.26244956 30.05028717 -0.54785116 21.08995808 6 12 C2.7 12 -0.6 12 -4 12 C-3.33501617 7.61110675 -1.81242323 4.0188515 0 0 Z " fill="#FAFBF9" transform="translate(121,69)"/>
<path d="M0 0 C3.67930722 2.69330582 5.83835319 5.18786104 7.171875 9.58984375 C8.26177305 21.41004764 8.26177305 21.41004764 6.171875 25.58984375 C4.851875 25.25984375 3.531875 24.92984375 2.171875 24.58984375 C2.07390625 23.93757813 1.9759375 23.2853125 1.875 22.61328125 C0.91081373 16.97777874 -0.19506093 13.04327713 -3.828125 8.58984375 C-4.158125 8.58984375 -4.488125 8.58984375 -4.828125 8.58984375 C-4.66957031 9.30785156 -4.51101562 10.02585937 -4.34765625 10.765625 C-2.78132449 19.28034574 -3.39220522 27.04627396 -7.828125 34.58984375 C-13.20222896 41.64799872 -20.20425022 46.00048783 -28.703125 48.40234375 C-33.74420312 48.70480844 -38.78003895 48.66335957 -43.828125 48.58984375 C-43.21534888 45.62809252 -42.57439978 44.20925592 -40.828125 41.58984375 C-37.8515625 41.0703125 -37.8515625 41.0703125 -34.203125 40.77734375 C-26.56603516 39.82270752 -22.47018231 37.75219496 -17.4609375 32.02734375 C-14.01227113 27.08029131 -13.92866215 21.40936841 -14.828125 15.58984375 C-16.85155662 12.04883841 -18.91829616 9.85478838 -22.828125 8.58984375 C-25.99508456 8.42259638 -25.99508456 8.42259638 -28.828125 8.58984375 C-28.26226451 4.62882034 -27.31259959 1.75969064 -24.828125 -1.41015625 C-16.95576008 -5.54314783 -7.47329065 -4.29595211 0 0 Z " fill="#2DABBC" transform="translate(152.828125,64.41015625)"/>
<path d="M0 0 C5.49923534 0.86573328 8.36894633 5.0999794 12 9 C12.69609375 9.72703125 13.3921875 10.4540625 14.109375 11.203125 C14.75390625 11.89921875 15.3984375 12.5953125 16.0625 13.3125 C16.65160156 13.94800781 17.24070313 14.58351563 17.84765625 15.23828125 C18.22792969 15.81964844 18.60820312 16.40101562 19 17 C18.505 18.485 18.505 18.485 18 20 C15.69 20 13.38 20 11 20 C11.02618408 20.64549805 11.05236816 21.29099609 11.0793457 21.95605469 C11.18342439 24.88712117 11.2483581 27.81779909 11.3125 30.75 C11.35439453 31.76578125 11.39628906 32.7815625 11.43945312 33.828125 C11.56358002 41.37503998 11.56358002 41.37503998 8.6328125 44.625 C3.83165211 47.13243094 0.50846907 48.36723127 -5 48 C-5.66 47.67 -6.32 47.34 -7 47 C-7 37.76 -7 28.52 -7 19 C-9.64 19 -12.28 19 -15 19 C-13.58985802 14.54650074 -11.42521808 12.13232907 -8.0625 8.9375 C-5.08903761 6.09541297 -2.36151785 3.37471033 0 0 Z " fill="#EE7632" transform="translate(113,16)"/>
<path d="M0 0 C2.61955514 1.48663599 4.66455902 3.0458555 7 5 C7 5.66 7 6.32 7 7 C7.99 6.34 8.98 5.68 10 5 C14.05991438 4.77935248 17.8272156 5.07598805 21.0625 7.625 C22.40735398 11.03196341 22.50984938 13.36732318 22 17 C19.9375 19.9375 19.9375 19.9375 17 22 C13.34078778 22.50471893 11.13250386 22.80371242 8.0625 20.625 C7 19 7 19 7 17 C6.34 17 5.68 17 5 17 C5 17.66 5 18.32 5 19 C0.48732759 21.64156434 -2.76630088 22.76126533 -8 22 C-11.26804233 19.30031286 -13.66860644 17.09380475 -14.34375 12.828125 C-14.74833457 6.15247964 -14.74833457 6.15247964 -12.68359375 2.97265625 C-8.54232171 -0.96479479 -5.59219447 -1.8973517 0 0 Z " fill="#F3FAF9" transform="translate(68,161)"/>
<path d="M0 0 C3.71615989 1.68916359 5.83904991 3.56323474 8 7 C8.75387754 11.54543809 8.56914643 15.72619608 6.6875 19.9375 C5.20595433 21.74827804 3.73468784 23.43052053 2 25 C3.65 25 5.3 25 7 25 C7 26.32 7 27.64 7 29 C4.25 29.25 4.25 29.25 1 29 C-0.37701298 27.71182656 -1.70644173 26.37195574 -3 25 C-4.155 24.525625 -5.31 24.05125 -6.5 23.5625 C-10.46060997 21.79437055 -11.9662516 20.823447 -14 17 C-14.73946313 12.8283118 -15.01232417 8.86028574 -12.94140625 5.0546875 C-8.93989786 0.13888788 -6.18844512 -0.4195556 0 0 Z " fill="#EE7637" transform="translate(47,127)"/>
<path d="M0 0 C2.12890625 0.4140625 2.12890625 0.4140625 4.69140625 1.9765625 C6.61339465 5.23558631 6.41468326 7.69896136 6.12890625 11.4140625 C2.16890625 11.4140625 -1.79109375 11.4140625 -5.87109375 11.4140625 C-5.54109375 12.0740625 -5.21109375 12.7340625 -4.87109375 13.4140625 C-1.57109375 13.4140625 1.72890625 13.4140625 5.12890625 13.4140625 C3.12890625 17.4140625 3.12890625 17.4140625 1.12890625 18.4140625 C-5.13628712 18.994173 -5.13628712 18.994173 -8.24609375 16.5390625 C-11.14902592 12.74292043 -11.27628795 10.19535405 -10.87109375 5.4140625 C-8.32444747 0.2100462 -5.41811436 -0.33919003 0 0 Z " fill="#F0854B" transform="translate(187.87109375,132.5859375)"/>
<path d="M0 0 C3.48326597 0.85529699 4.97293913 2.60978164 6.97265625 5.484375 C7.59765625 8.484375 7.59765625 8.484375 6.97265625 11.484375 C4.97293913 14.35896836 3.48326597 16.11345301 0 16.96875 C-3.74624162 17.22083355 -5.667774 16.79000928 -8.52734375 14.359375 C-10.29473679 10.97187167 -10.65508945 9.2508492 -10.02734375 5.484375 C-7.61458248 0.85991589 -5.2803869 -0.35531575 0 0 Z " fill="#31ADBB" transform="translate(141.02734375,41.515625)"/>
<path d="M0 0 C2.0625 0.6015625 2.0625 0.6015625 4.125 2.2265625 C5.46985398 5.63352591 5.57234938 7.96888568 5.0625 11.6015625 C2.44681879 15.32692665 1.0021067 16.43671922 -3.5 17.2265625 C-6.9375 16.6015625 -6.9375 16.6015625 -9.375 14.6015625 C-11.53525838 10.4538664 -11.52857389 8.25626938 -10.9375 3.6015625 C-8.2638286 -1.16454738 -4.91047562 -0.8237969 0 0 Z " fill="#30A7BC" transform="translate(84.9375,166.3984375)"/>
<path d="M0 0 C0.77085937 -0.03738281 1.54171875 -0.07476562 2.3359375 -0.11328125 C5.6180192 0.49720835 6.67981591 1.6195007 8.625 4.3125 C9.234375 7.765625 9.234375 7.765625 9.375 11.5625 C9.43171875 12.82578125 9.4884375 14.0890625 9.546875 15.390625 C9.58554688 16.83695313 9.58554688 16.83695313 9.625 18.3125 C8.67625 18.126875 7.7275 17.94125 6.75 17.75 C3.72631207 17.02563368 3.72631207 17.02563368 1.625 18.3125 C-1.375 18.5 -1.375 18.5 -4.375 18.3125 C-6.375 16.3125 -6.375 16.3125 -6.6875 12.8125 C-6.584375 11.6575 -6.48125 10.5025 -6.375 9.3125 C-2.7308226 6.8830484 -0.66258728 7.15070425 3.625 7.3125 C3.625 6.3225 3.625 5.3325 3.625 4.3125 C-0.83 4.8075 -0.83 4.8075 -5.375 5.3125 C-5.705 3.9925 -6.035 2.6725 -6.375 1.3125 C-4.07513269 0.16256634 -2.56030912 0.0808071 0 0 Z " fill="#EC7D41" transform="translate(152.375,132.6875)"/>
<path d="M0 0 C1.65 0 3.3 0 5 0 C5.33 3.96 5.66 7.92 6 12 C6.721875 11.175 7.44375 10.35 8.1875 9.5 C11 7 11 7 13.8125 6.6875 C14.534375 6.790625 15.25625 6.89375 16 7 C15.154375 7.9075 14.30875 8.815 13.4375 9.75 C11.42653541 12.07382691 11.42653541 12.07382691 10.9375 15 C12.42578901 17.8014852 14.22833658 20.37108009 16 23 C16 23.66 16 24.32 16 25 C13.6875 25.3125 13.6875 25.3125 11 25 C9.18116991 22.6167054 8 21.04181663 8 18 C7.34 18.33 6.68 18.66 6 19 C5.34227572 22.02934491 5.34227572 22.02934491 5 25 C3.35 25 1.7 25 0 25 C0 16.75 0 8.5 0 0 Z " fill="#EE7C3F" transform="translate(106,126)"/>
<path d="M0 0 C2.5 1.5 2.5 1.5 4 4 C4.791013 8.02098277 4.62153384 10.96411027 2.5 14.5 C-1.03588973 16.62153384 -3.97901723 16.791013 -8 16 C-10.5 14.5 -10.5 14.5 -12 12 C-12.791013 7.97901723 -12.62153384 5.03588973 -10.5 1.5 C-6.96411027 -0.62153384 -4.02098277 -0.791013 0 0 Z " fill="#EE8A38" transform="translate(94,42)"/>
<path d="M0 0 C3 1.5 3 1.5 5 3 C4.34 4.32 3.68 5.64 3 7 C2.01 6.67 1.02 6.34 0 6 C-3.58343976 5.83322718 -3.58343976 5.83322718 -7 6 C-8.57922406 7.57922406 -8.207659 9.19443874 -8.25 11.375 C-8.27578125 12.16648438 -8.3015625 12.95796875 -8.328125 13.7734375 C-7.92495601 16.50922706 -7.18548009 17.35697797 -5 19 C-1.38321316 19.46369062 0.88578592 18.8454602 4 17 C4.66 17.99 5.32 18.98 6 20 C3.00529631 23.09130703 0.73756575 24.34319359 -3.5 24.5625 C-7.16196393 24.4038149 -7.93843051 24.04745981 -11 21.6875 C-13.98031088 17.68270725 -14.47399005 14.22726875 -14.40234375 9.36328125 C-13.8021251 5.83772509 -12.32498733 3.77808993 -9.84765625 1.25390625 C-6.4159065 -1.0750402 -4.05719306 -0.6439989 0 0 Z " fill="#F07C3D" transform="translate(138,127)"/>
<path d="M0 0 C3.18750407 2.18092383 3.87868068 3.47428296 4.75 7.25 C4.87375 8.61125 4.87375 8.61125 5 10 C1.04 10 -2.92 10 -7 10 C-6.67 10.66 -6.34 11.32 -6 12 C-2.7 12 0.6 12 4 12 C2 16 2 16 0 17 C-3.375 17.375 -3.375 17.375 -7 17 C-9.57687323 14.88564247 -10.74473348 13.32896485 -11.37890625 10.02734375 C-11.57547799 6.63489591 -11.24074916 4.38519866 -9.4375 1.5 C-6.05111671 -0.58392818 -3.90614682 -0.55802097 0 0 Z " fill="#36ACBE" transform="translate(140,166)"/>
<path d="M0 0 C1.65 0 3.3 0 5 0 C5 4.62 5 9.24 5 14 C6.65 13.34 8.3 12.68 10 12 C10.33 8.04 10.66 4.08 11 0 C12.32 0 13.64 0 15 0 C15.06058594 0.88042969 15.12117188 1.76085937 15.18359375 2.66796875 C15.26738281 3.82941406 15.35117188 4.99085938 15.4375 6.1875 C15.55931641 7.91033203 15.55931641 7.91033203 15.68359375 9.66796875 C15.95403812 12.51598171 16.37521747 15.21210482 17 18 C15.88625 17.814375 14.7725 17.62875 13.625 17.4375 C10.17431139 16.68319343 10.17431139 16.68319343 8 18 C5 18.25 5 18.25 2 18 C-0.45391569 14.31912647 -0.22802759 11.55644412 -0.125 7.3125 C-0.11597656 6.61060547 -0.10695312 5.90871094 -0.09765625 5.18554688 C-0.07413704 3.45688475 -0.03826713 1.72839855 0 0 Z " fill="#F29766" transform="translate(59,133)"/>
<path d="M0 0 C2.4375 2.0625 2.4375 2.0625 4 4 C2.02 4.99 2.02 4.99 0 6 C-0.33 5.67 -0.66 5.34 -1 5 C-3.95817107 4.74994614 -3.95817107 4.74994614 -7 5 C-9.38004065 6.93501064 -9.38004065 6.93501064 -9.1875 10.4375 C-9.16031917 13.96225747 -9.16031917 13.96225747 -8 17 C-4.16774573 17.08912219 -0.73437848 16.87867729 3 16 C3 17.32 3 18.64 3 20 C-0.66244303 22.34396354 -3.72394153 22.52512999 -8 22 C-11.26804233 19.30031286 -13.66860644 17.09380475 -14.34375 12.828125 C-14.74833457 6.15247964 -14.74833457 6.15247964 -12.68359375 2.97265625 C-8.56799538 -0.94038471 -5.57712272 -1.89411715 0 0 Z " fill="#45B7C3" transform="translate(68,161)"/>
<path d="M0 0 C2.475 0.495 2.475 0.495 5 1 C5.33 0.67 5.66 0.34 6 0 C11.27573169 -0.45875928 11.27573169 -0.45875928 13.68359375 1.06640625 C15.70789836 4.03979136 15.28491652 6.64803329 15.1875 10.1875 C15.16042969 11.45980469 15.13335937 12.73210937 15.10546875 14.04296875 C15.07066406 15.01878906 15.03585938 15.99460938 15 17 C13.35 17 11.7 17 10 17 C10 12.71 10 8.42 10 4 C8.68 4.33 7.36 4.66 6 5 C5.67 8.96 5.34 12.92 5 17 C3.35 17 1.7 17 0 17 C0 11.39 0 5.78 0 0 Z " fill="#57BAC7" transform="translate(111,166)"/>
<path d="M0 0 C0.99 0 1.98 0 3 0 C3 0.66 3 1.32 3 2 C3.99 1.34 4.98 0.68 6 0 C9 -0.375 9 -0.375 12 0 C14.50564122 2.39466876 14.97755584 3.75221653 15.29296875 7.234375 C15.25816406 8.39453125 15.22335938 9.5546875 15.1875 10.75 C15.16042969 11.92046875 15.13335937 13.0909375 15.10546875 14.296875 C15.07066406 15.18890625 15.03585938 16.0809375 15 17 C13.35 17 11.7 17 10 17 C10 12.71 10 8.42 10 4 C8.35 4.66 6.7 5.32 5 6 C4.67 9.63 4.34 13.26 4 17 C2.68 17 1.36 17 0 17 C0 11.39 0 5.78 0 0 Z " fill="#40B1C1" transform="translate(93,166)"/>
<path d="M0 0 C2.9375 1 2.9375 1 4.8125 2.6875 C6.31935358 5.78492126 6.49401279 7.59135918 5.9375 11 C3.8125 13.9375 3.8125 13.9375 0.9375 16 C-2.25 16.0625 -2.25 16.0625 -5.0625 15 C-7.11467619 12.57470087 -7.09698579 10.67813262 -7.4375 7.5 C-7.0625 4 -7.0625 4 -5.4375 1.5 C-3.0625 0 -3.0625 0 0 0 Z " fill="#FCF5F0" transform="translate(45.0625,131)"/>
<path d="M0 0 C2 2 2 2 3 4 C-0.69541586 4.95024979 -3.30458414 4.95024979 -7 4 C-7 6.64 -7 9.28 -7 12 C-3.59437148 12.77842938 -0.49234244 13.09978121 3 13 C1.25 16.875 1.25 16.875 -1 18 C-7.26519337 18.5801105 -7.26519337 18.5801105 -10.375 16.125 C-13.27394168 12.33407627 -13.48603989 9.77939224 -13 5 C-9.2939144 -0.44331322 -6.15985502 -0.8941725 0 0 Z " fill="#F07231" transform="translate(100,133)"/>
<path d="M0 0 C1.9375 2 1.9375 2 3 4 C0.01758453 4.77321882 -2.97580475 5.41196203 -6 6 C-6 7.65 -6 9.3 -6 11 C-2.846632 11.70074844 -0.27275026 12 3 12 C2.625 13.9375 2.625 13.9375 2 16 C-1.09173752 17.54586876 -3.59429552 17.29359521 -7 17 C-9.4375 15.5625 -9.4375 15.5625 -11 13 C-11.77201236 8.66240478 -11.75587974 5.23964277 -9.4375 1.4375 C-6.05949997 -0.55465386 -3.85097134 -0.56014129 0 0 Z " fill="#35ACBC" transform="translate(158,166)"/>
<path d="M0 0 C1.32 0 2.64 0 4 0 C4 1.65 4 3.3 4 5 C5.32 5 6.64 5 8 5 C8 6.32 8 7.64 8 9 C6.68 9 5.36 9 4 9 C4 11.97 4 14.94 4 18 C5.32 18 6.64 18 8 18 C7.67 19.32 7.34 20.64 7 22 C4.625 22.125 4.625 22.125 2 22 C0 20 0 20 -0.1953125 17.3984375 C-0.17210937 16.40070313 -0.14890625 15.40296875 -0.125 14.375 C-0.10695312 13.37210938 -0.08890625 12.36921875 -0.0703125 11.3359375 C-0.04710937 10.56507813 -0.02390625 9.79421875 0 9 C-0.66 9 -1.32 9 -2 9 C-2 7.68 -2 6.36 -2 5 C-1.34 5 -0.68 5 0 5 C0 3.35 0 1.7 0 0 Z " fill="#2CA5B5" transform="translate(165,161)"/>
<path d="M0 0 C0.33 0.99 0.66 1.98 1 3 C1.66 3 2.32 3 3 3 C3 6.3 3 9.6 3 13 C2.01 13 1.02 13 0 13 C-0.33 12.34 -0.66 11.68 -1 11 C-2.27875 11.20625 -3.5575 11.4125 -4.875 11.625 C-7.0546875 11.9765625 -7.0546875 11.9765625 -9 12 C-11 10 -11 10 -11.25 7.5 C-11 5 -11 5 -9 3 C-7.845 3.020625 -6.69 3.04125 -5.5 3.0625 C-4.345 3.041875 -3.19 3.02125 -2 3 C-1.34 2.01 -0.68 1.02 0 0 Z " fill="#EDFAF9" transform="translate(162,167)"/>
<path d="M0 0 C3.66666667 0 7.33333333 0 11 0 C11 1.32 11 2.64 11 4 C9.35 4.66 7.7 5.32 6 6 C5.67 9.96 5.34 13.92 5 18 C3.35 18 1.7 18 0 18 C0 12.06 0 6.12 0 0 Z " fill="#ED7330" transform="translate(165,133)"/>
<path d="M0 0 C2.64 0 5.28 0 8 0 C8 9.24 8 18.48 8 28 C15.79742938 28.02629399 15.79742938 28.02629399 22 25 C22.66 25.33 23.32 25.66 24 26 C24 26.99 24 27.98 24 29 C18.81011784 31.18521354 14.72844751 32.75658741 9 32 C6.0625 30 6.0625 30 4 28 C4.66 27.34 5.32 26.68 6 26 C6.37173016 23.3817233 6.37173016 23.3817233 6.4140625 20.3359375 C6.47207031 18.65371094 6.47207031 18.65371094 6.53125 16.9375 C6.57765625 15.1740625 6.57765625 15.1740625 6.625 13.375 C6.68300781 11.59996094 6.68300781 11.59996094 6.7421875 9.7890625 C6.83668845 6.85953309 6.92224558 3.93001403 7 1 C4.69 1 2.38 1 0 1 C0 0.67 0 0.34 0 0 Z " fill="#F6E7DB" transform="translate(98,35)"/>
<path d="M0 0 C1.65 0 3.3 0 5 0 C5 5.94 5 11.88 5 18 C3.35 18 1.7 18 0 18 C0 12.06 0 6.12 0 0 Z " fill="#EE8348" transform="translate(79,133)"/>
<path d="M0 0 C1.32 0 2.64 0 4 0 C4.06058594 0.88042969 4.12117188 1.76085937 4.18359375 2.66796875 C4.26738281 3.82941406 4.35117188 4.99085938 4.4375 6.1875 C4.55931641 7.91033203 4.55931641 7.91033203 4.68359375 9.66796875 C4.95403812 12.51598171 5.37521747 15.21210482 6 18 C4.35 17.67 2.7 17.34 1 17 C0.09586327 13.16275828 -0.10576898 9.62497726 -0.0625 5.6875 C-0.05347656 4.61886719 -0.04445313 3.55023438 -0.03515625 2.44921875 C-0.02355469 1.64097656 -0.01195313 0.83273438 0 0 Z " fill="#EE7838" transform="translate(70,133)"/>
<path d="M0 0 C6.27586207 -0.48275862 6.27586207 -0.48275862 9.4375 1.625 C11.39644605 4.602598 11.31785906 6.50355037 11 10 C7.37 10 3.74 10 0 10 C-0.33 9.01 -0.66 8.02 -1 7 C1.64 7 4.28 7 7 7 C4.8824606 3.82369089 3.2304343 2.87025144 0 1 C0 0.67 0 0.34 0 0 Z " fill="#EC7E3E" transform="translate(183,133)"/>
<path d="M0 0 C1.98 0 3.96 0 6 0 C6.33 1.65 6.66 3.3 7 5 C8.98 5 10.96 5 13 5 C13 6.32 13 7.64 13 9 C10.25 9.25 10.25 9.25 7 9 C4.9375 7.125 4.9375 7.125 3 5 C0.36777038 3.74563813 0.36777038 3.74563813 -2 3 C-1.34 2.67 -0.68 2.34 0 2 C0 1.34 0 0.68 0 0 Z " fill="#EC6928" transform="translate(41,147)"/>
<path d="M0 0 C0.33 0.66 0.66 1.32 1 2 C4.83225427 2.08912219 8.26562152 1.87867729 12 1 C12 2.32 12 3.64 12 5 C8.35969312 7.3297964 5.24881273 7.3862557 1 7 C-0.9375 5.5 -0.9375 5.5 -2 4 C-1.34 2.68 -0.68 1.36 0 0 Z " fill="#39B1C5" transform="translate(59,176)"/>
<path d="M0 0 C3.625 0.375 3.625 0.375 6.0625 2.0625 C7.88453249 4.75910809 7.97930394 6.18626451 7.625 9.375 C6.965 9.375 6.305 9.375 5.625 9.375 C4 6.875 4 6.875 2.625 4.375 C1.903125 4.519375 1.18125 4.66375 0.4375 4.8125 C-3.46875 5.59375 -3.46875 5.59375 -7.375 6.375 C-4.640625 0.515625 -4.640625 0.515625 0 0 Z " fill="#35ABBA" transform="translate(136.375,165.625)"/>
<path d="M0 0 C0 0.66 0 1.32 0 2 C-0.64453125 2.23460937 -1.2890625 2.46921875 -1.953125 2.7109375 C-4.2077908 3.81161073 -4.2077908 3.81161073 -4.609375 6.1640625 C-4.65578125 6.97617188 -4.7021875 7.78828125 -4.75 8.625 C-4.80671875 9.44226563 -4.8634375 10.25953125 -4.921875 11.1015625 C-4.94765625 11.72804687 -4.9734375 12.35453125 -5 13 C-5.99 13 -6.98 13 -8 13 C-9.59352059 9.81295882 -9.3829977 6.46825691 -9 3 C-6.87107064 -0.7847633 -4.02750676 -0.26850045 0 0 Z " fill="#2EABBC" transform="translate(83,167)"/>
<path d="M0 0 C2.5 0.125 2.5 0.125 3.5 1.125 C3.54092937 3.45797433 3.54241723 5.79205225 3.5 8.125 C1.125 8.75 1.125 8.75 -1.5 9.125 C-3.5 7.125 -3.5 7.125 -3.6875 4.0625 C-3.43916756 0.17195838 -3.43916756 0.17195838 0 0 Z " fill="#EEF9F8" transform="translate(81.5,169.875)"/>
<path d="M0 0 C0.33 3.3 0.66 6.6 1 10 C-0.98 10.33 -2.96 10.66 -5 11 C-6.5625 9.1875 -6.5625 9.1875 -8 7 C-6.76759083 3.3027725 -4.20634615 0 0 0 Z " fill="#FBF4EC" transform="translate(124,135)"/>
<path d="M0 0 C0.66 0.33 1.32 0.66 2 1 C3.70702735 1.06996014 5.41668003 1.08440154 7.125 1.0625 C8.03507813 1.05347656 8.94515625 1.04445312 9.8828125 1.03515625 C10.93082031 1.01775391 10.93082031 1.01775391 12 1 C10.25 4.875 10.25 4.875 8 6 C1.52941176 6.35294118 1.52941176 6.35294118 -2 4 C-2 3.01 -2 2.02 -2 1 C-1.34 0.67 -0.68 0.34 0 0 Z " fill="#ED702E" transform="translate(181,145)"/>
<path d="M0 0 C2.625 -0.1875 2.625 -0.1875 5 0 C4.67 1.65 4.34 3.3 4 5 C2.68 5 1.36 5 0 5 C0 5.66 0 6.32 0 7 C0.99 7.33 1.98 7.66 3 8 C0.125 8.125 0.125 8.125 -3 8 C-5 6 -5 6 -5.125 3.375 C-5.08375 2.59125 -5.0425 1.8075 -5 1 C-3.515 1.99 -3.515 1.99 -2 3 C-1.34 2.01 -0.68 1.02 0 0 Z " fill="#ED804A" transform="translate(151,143)"/>
<path d="M0 0 C1.3303125 0.2475 1.3303125 0.2475 2.6875 0.5 C5.53596892 0.92995757 8.13004802 1.08441035 11 1 C9.25 4.875 9.25 4.875 7 6 C0.60110803 6.46537396 0.60110803 6.46537396 -1.9375 4.5 C-2.4634375 3.7575 -2.4634375 3.7575 -3 3 C-2.01 2.67 -1.02 2.34 0 2 C0 1.34 0 0.68 0 0 Z " fill="#EE864D" transform="translate(92,145)"/>
<path d="M0 0 C1.32 0 2.64 0 4 0 C4 4.29 4 8.58 4 13 C2.68 13 1.36 13 0 13 C0 8.71 0 4.42 0 0 Z " fill="#F06B29" transform="translate(59,133)"/>
<path d="M0 0 C0.99 0.33 1.98 0.66 3 1 C1.61219205 4.89006773 -0.2152227 7.96558708 -2.625 11.3125 C-3.25664063 12.19550781 -3.88828125 13.07851562 -4.5390625 13.98828125 C-5.02117187 14.65214844 -5.50328125 15.31601563 -6 16 C-7.31622874 12.05131377 -6.30180315 10.64928624 -4.6875 6.875 C-4.23761719 5.79992187 -3.78773437 4.72484375 -3.32421875 3.6171875 C-2 1 -2 1 0 0 Z " fill="#ED8348" transform="translate(113,94)"/>
<path d="M0 0 C0.99 0.33 1.98 0.66 3 1 C3 5.62 3 10.24 3 15 C2.01 15 1.02 15 0 15 C0 10.05 0 5.1 0 0 Z " fill="#27A4B7" transform="translate(112,167)"/>
<path d="M0 0 C0.33 3.96 0.66 7.92 1 12 C0.01 12 -0.98 12 -2 12 C-4.08466413 8.61242079 -4.42905061 5.94726562 -4 2 C-1 0 -1 0 0 0 Z " fill="#26A7B9" transform="translate(58,168)"/>
<path d="M0 0 C0.33 0 0.66 0 1 0 C1 5.61 1 11.22 1 17 C1.33 16.67 1.66 16.34 2 16 C1.95875 15.195625 1.9175 14.39125 1.875 13.5625 C1.91625 12.716875 1.9575 11.87125 2 11 C2.99 10.34 3.98 9.68 5 9 C5 11.97 5 14.94 5 18 C3.35 18 1.7 18 0 18 C0 12.06 0 6.12 0 0 Z " fill="#EF9764" transform="translate(165,133)"/>
<path d="M0 0 C6.625 -0.25 6.625 -0.25 10 2 C9.34 3.32 8.68 4.64 8 6 C5.03 5.01 2.06 4.02 -1 3 C-0.67 2.01 -0.34 1.02 0 0 Z " fill="#F0712B" transform="translate(133,128)"/>
<path d="M0 0 C2.75 -0.25 2.75 -0.25 6 0 C8.375 2 8.375 2 10 4 C8.375 5.1875 8.375 5.1875 6 6 C2.75 4.625 2.75 4.625 0 3 C0 2.01 0 1.02 0 0 Z " fill="#34A7B4" transform="translate(62,161)"/>
<path d="M0 0 C0.33 0 0.66 0 1 0 C1.33 1.65 1.66 3.3 2 5 C2.33 5 2.66 5 3 5 C3.66 7.97 4.32 10.94 5 14 C4.01 14.33 3.02 14.66 2 15 C1.34 15.66 0.68 16.32 0 17 C0 11.39 0 5.78 0 0 Z " fill="#F7F3E8" transform="translate(84,134)"/>
<path d="M0 0 C0.33 0 0.66 0 1 0 C1 3.96 1 7.92 1 12 C0.01 12 -0.98 12 -2 12 C-2 8.7 -2 5.4 -2 2 C-1.34 2 -0.68 2 0 2 C0 1.34 0 0.68 0 0 Z " fill="#25A0B5" transform="translate(106,170)"/>
<path d="M0 0 C1.4800841 0.11362262 2.95910074 0.24122908 4.4375 0.375 C5.26121094 0.44460937 6.08492188 0.51421875 6.93359375 0.5859375 C7.95646484 0.79089844 7.95646484 0.79089844 9 1 C10.27351308 3.54702616 9.80191925 4.4282945 9.0625 7.125 C8.86785156 7.84945312 8.67320313 8.57390625 8.47265625 9.3203125 C8.31667969 9.87460938 8.16070312 10.42890625 8 11 C7.67 11 7.34 11 7 11 C6.9175 10.05125 6.835 9.1025 6.75 8.125 C6.34925077 4.89538209 6.34925077 4.89538209 3.9375 3.625 C3.298125 3.41875 2.65875 3.2125 2 3 C2.99 3 3.98 3 5 3 C5 2.34 5 1.68 5 1 C3.35 1 1.7 1 0 1 C0 0.67 0 0.34 0 0 Z " fill="#4BB2C2" transform="translate(78,166)"/>
<path d="M0 0 C2.8125 -0.25 2.8125 -0.25 6 0 C7.875 2 7.875 2 9 4 C6.08517222 4.80967438 4.53886783 5.21845993 1.6875 4.0625 C1.130625 3.711875 0.57375 3.36125 0 3 C0 2.01 0 1.02 0 0 Z " fill="#F16E29" transform="translate(94,133)"/>
<path d="M0 0 C2.475 0.99 2.475 0.99 5 2 C5 2.66 5 3.32 5 4 C5.66 4 6.32 4 7 4 C7 4.66 7 5.32 7 6 C4.69 6 2.38 6 0 6 C-1 3 -1 3 0 0 Z " fill="#3DB3C5" transform="translate(78,177)"/>
<path d="M0 0 C1.43739513 -0.02712066 2.87493863 -0.04645067 4.3125 -0.0625 C5.51326172 -0.07990234 5.51326172 -0.07990234 6.73828125 -0.09765625 C9 0 9 0 12 1 C11.67 1.99 11.34 2.98 11 4 C11 3.34 11 2.68 11 2 C7.7 2.33 4.4 2.66 1 3 C0.67 2.01 0.34 1.02 0 0 Z " fill="#F6E8DF" transform="translate(182,144)"/>
<path d="M0 0 C2.97 0.495 2.97 0.495 6 1 C6.33 3.31 6.66 5.62 7 8 C6.34 8 5.68 8 5 8 C3.98133771 6.34467377 2.98189187 4.67739862 2 3 C1.34 2.67 0.68 2.34 0 2 C0 1.34 0 0.68 0 0 Z " fill="#279FB2" transform="translate(137,167)"/>
<path d="M0 0 C0 0.66 0 1.32 0 2 C0.66 2.66 1.32 3.32 2 4 C-0.64 4.33 -3.28 4.66 -6 5 C-6.33 3.68 -6.66 2.36 -7 1 C-4.53721199 -0.231394 -2.7204945 -0.07159196 0 0 Z " fill="#F0915D" transform="translate(153,133)"/>
<path d="M0 0 C2.05078125 0.03255208 4.1015625 0.06510417 6.15234375 0.09765625 C6.15234375 0.42765625 6.15234375 0.75765625 6.15234375 1.09765625 C4.94578125 1.28328125 4.94578125 1.28328125 3.71484375 1.47265625 C2.86921875 1.67890625 2.02359375 1.88515625 1.15234375 2.09765625 C0.82234375 2.75765625 0.49234375 3.41765625 0.15234375 4.09765625 C1.80234375 4.09765625 3.45234375 4.09765625 5.15234375 4.09765625 C5.15234375 4.42765625 5.15234375 4.75765625 5.15234375 5.09765625 C2.51234375 5.42765625 -0.12765625 5.75765625 -2.84765625 6.09765625 C-2.89037725 4.4315372 -2.88829457 2.7638274 -2.84765625 1.09765625 C-1.84765625 0.09765625 -1.84765625 0.09765625 0 0 Z " fill="#F08249" transform="translate(131.84765625,126.90234375)"/>
<path d="M0 0 C3.63 0 7.26 0 11 0 C10.67 0.66 10.34 1.32 10 2 C7.93359375 2.4140625 7.93359375 2.4140625 5.4375 2.625 C4.61121094 2.69976562 3.78492188 2.77453125 2.93359375 2.8515625 C1.97646484 2.92503906 1.97646484 2.92503906 1 3 C0.67 2.01 0.34 1.02 0 0 Z " fill="#E8F8F8" transform="translate(133,176)"/>
<path d="M0 0 C0.66 0.33 1.32 0.66 2 1 C2 1.99 2 2.98 2 4 C-1.4019487 6.09350689 -4.05272412 6.17942163 -8 6 C-8 5.34 -8 4.68 -8 4 C-6.576875 3.566875 -6.576875 3.566875 -5.125 3.125 C-1.94788422 2.23174891 -1.94788422 2.23174891 0 0 Z " fill="#EF8B51" transform="translate(69,145)"/>
<path d="M0 0 C0.433125 0.9590625 0.433125 0.9590625 0.875 1.9375 C1.82823451 4.15206079 1.82823451 4.15206079 4 5 C3.01 5.99 2.02 6.98 1 8 C-0.32 6.68 -1.64 5.36 -3 4 C-2.67 3.34 -2.34 2.68 -2 2 C-1.34 2 -0.68 2 0 2 C0 1.34 0 0.68 0 0 Z " fill="#EE8247" transform="translate(38,142)"/>
<path d="M0 0 C0 0.99 0 1.98 0 3 C-4.455 3.495 -4.455 3.495 -9 4 C-9 3.01 -9 2.02 -9 1 C-6.04335481 -0.4783226 -3.25770263 -0.06032783 0 0 Z " fill="#F8F2EB" transform="translate(156,137)"/>
<path d="M0 0 C2.97 0 5.94 0 9 0 C7.02 0.99 7.02 0.99 5 2 C3.26574227 4.03317007 3.26574227 4.03317007 2 6 C1.01 5.01 0.02 4.02 -1 3 C-0.67 2.01 -0.34 1.02 0 0 Z " fill="#EC7236" transform="translate(147,141)"/>
<path d="M0 0 C1.65 0.33 3.3 0.66 5 1 C5.33 1.99 5.66 2.98 6 4 C3.36 4 0.72 4 -2 4 C-1.34 2.68 -0.68 1.36 0 0 Z " fill="#F7E8DD" transform="translate(184,136)"/>
<path d="M0 0 C1.98 0.495 1.98 0.495 4 1 C3.67 2.65 3.34 4.3 3 6 C1.68 5.67 0.36 5.34 -1 5 C-0.67 3.35 -0.34 1.7 0 0 Z " fill="#F18E56" transform="translate(80,125)"/>
<path d="M0 0 C0.66 0.33 1.32 0.66 2 1 C2 3.64 2 6.28 2 9 C1.01 9 0.02 9 -1 9 C-1.09765625 2.84765625 -1.09765625 2.84765625 -1 1 C-0.67 0.67 -0.34 0.34 0 0 Z " fill="#26A7BD" transform="translate(123,173)"/>
<path d="M0 0 C3.3125 -0.25 3.3125 -0.25 7 0 C8.9375 2 8.9375 2 10 4 C7.39417629 4.93065133 6.35801776 5.14917407 3.75 4.0625 C3.1725 3.711875 2.595 3.36125 2 3 C2.99 3 3.98 3 5 3 C5 2.34 5 1.68 5 1 C3.35 1 1.7 1 0 1 C0 0.67 0 0.34 0 0 Z " fill="#45B9C7" transform="translate(151,166)"/>
<path d="M0 0 C1.65 0.33 3.3 0.66 5 1 C5 1.99 5 2.98 5 4 C2.69 4 0.38 4 -2 4 C-1.34 2.68 -0.68 1.36 0 0 Z " fill="#DBF1F3" transform="translate(135,169)"/>
<path d="M0 0 C0 0.99 0 1.98 0 3 C0.99 3.33 1.98 3.66 3 4 C1.68 4 0.36 4 -1 4 C-1.33 4.66 -1.66 5.32 -2 6 C-3.32 5.67 -4.64 5.34 -6 5 C-3.74193548 0 -3.74193548 0 0 0 Z " fill="#F08145" transform="translate(94,133)"/>
<path d="M0 0 C1.65 0 3.3 0 5 0 C5 1.32 5 2.64 5 4 C3.02 4 1.04 4 -1 4 C-0.67 2.68 -0.34 1.36 0 0 Z " fill="#F6F1EB" transform="translate(151,143)"/>
<path d="M0 0 C1.98 0 3.96 0 6 0 C6 0.66 6 1.32 6 2 C4.03533587 3.06775224 2.03144641 4.06553465 0 5 C-0.66 4.67 -1.32 4.34 -2 4 C-1.34 2.68 -0.68 1.36 0 0 Z " fill="#24A0B5" transform="translate(77,167)"/>
<path d="M0 0 C1.65 0.33 3.3 0.66 5 1 C4.67 1.99 4.34 2.98 4 4 C2.02 4 0.04 4 -2 4 C-1.34 2.68 -0.68 1.36 0 0 Z " fill="#EB7A3D" transform="translate(50,152)"/>
<path d="M0 0 C2.64 0.33 5.28 0.66 8 1 C8 1.99 8 2.98 8 4 C5.36 4 2.72 4 0 4 C0 2.68 0 1.36 0 0 Z " fill="#DDF3F1" transform="translate(134,57)"/>
<path d="M0 0 C1.98 0 3.96 0 6 0 C5.67 1.32 5.34 2.64 5 4 C3.35 4 1.7 4 0 4 C0 2.68 0 1.36 0 0 Z " fill="#34B1C6" transform="translate(167,179)"/>
<path d="M0 0 C0.66 0.33 1.32 0.66 2 1 C1.360625 1.886875 0.72125 2.77375 0.0625 3.6875 C-1.80829757 6.69211428 -2.59423966 8.5510371 -3 12 C-3.33 12 -3.66 12 -4 12 C-4.33292585 7.75519536 -4.43885872 5.64457375 -2 2.0625 C-1.34 1.381875 -0.68 0.70125 0 0 Z " fill="#F3935D" transform="translate(181,133)"/>
<path d="M0 0 C0 0.33 0 0.66 0 1 C-2.64 1.66 -5.28 2.32 -8 3 C-8.33 1.68 -8.66 0.36 -9 -1 C-5.79937313 -2.60031344 -3.27728194 -1.03173691 0 0 Z " fill="#EE793D" transform="translate(188,147)"/>
<path d="M0 0 C0.99 0.66 1.98 1.32 3 2 C3 2.66 3 3.32 3 4 C3.66 4.33 4.32 4.66 5 5 C4.01 5 3.02 5 2 5 C-0.15028304 5.94978897 -0.15028304 5.94978897 -2 7 C-1.34 4.69 -0.68 2.38 0 0 Z " fill="#EDF1E9" transform="translate(121,69)"/>
<path d="M0 0 C-0.66 1.32 -1.32 2.64 -2 4 C-4.31 3.34 -6.62 2.68 -9 2 C-9 1.67 -9 1.34 -9 1 C-5.846632 0.29925156 -3.27275026 0 0 0 Z " fill="#55BFCD" transform="translate(144,178)"/>
<path d="M0 0 C1.32 0 2.64 0 4 0 C4 0.66 4 1.32 4 2 C4.66 2 5.32 2 6 2 C6 2.66 6 3.32 6 4 C4.35 4 2.7 4 1 4 C0.67 2.68 0.34 1.36 0 0 Z " fill="#EF7737" transform="translate(133,147)"/>
<path d="M0 0 C1.04449911 3.13349732 0.93423645 3.98968256 0 7 C-0.99 7 -1.98 7 -3 7 C-3.1875 4.625 -3.1875 4.625 -3 2 C-2.01 1.34 -1.02 0.68 0 0 Z " fill="#35B2C2" transform="translate(158,82)"/>
<path d="M0 0 C0.66 0.33 1.32 0.66 2 1 C1.360625 1.721875 0.72125 2.44375 0.0625 3.1875 C-1.98673535 5.98191184 -2.61332946 7.61663274 -3 11 C-3.33 11 -3.66 11 -4 11 C-4.36630156 7.06225823 -4.30233203 5.43460229 -2 2.125 C-1.34 1.42375 -0.68 0.7225 0 0 Z " fill="#4ABAC0" transform="translate(135,42)"/>
<path d="M0 0 C2.97 0.495 2.97 0.495 6 1 C6 1.66 6 2.32 6 3 C3.69 3 1.38 3 -1 3 C-0.67 2.01 -0.34 1.02 0 0 Z " fill="#2CA2B6" transform="translate(152,180)"/>
<path d="M0 0 C1.32 0.33 2.64 0.66 4 1 C3.01 1 2.02 1 1 1 C1.020625 1.94875 1.04125 2.8975 1.0625 3.875 C1 7 1 7 0 9 C-0.66 9 -1.32 9 -2 9 C-2 7.68 -2 6.36 -2 5 C-1.34 5 -0.68 5 0 5 C0 3.35 0 1.7 0 0 Z " fill="#40B6C1" transform="translate(165,161)"/>
<path d="M0 0 C1.98 0 3.96 0 6 0 C6.33 0.66 6.66 1.32 7 2 C4.69 2.33 2.38 2.66 0 3 C0 2.01 0 1.02 0 0 Z " fill="#23A0B3" transform="translate(62,161)"/>
<path d="M0 0 C0.99 0.33 1.98 0.66 3 1 C3 3.31 3 5.62 3 8 C2.01 8 1.02 8 0 8 C0 5.36 0 2.72 0 0 Z " fill="#ED671E" transform="translate(80,142)"/>
<path d="M0 0 C0.33 0.99 0.66 1.98 1 3 C-0.4375 5.1875 -0.4375 5.1875 -2 7 C-2 6.34 -2 5.68 -2 5 C-2.99 5 -3.98 5 -5 5 C-3.768606 2.53721199 -2.21935077 1.57502313 0 0 Z " fill="#EAF2EE" transform="translate(110,106)"/>
</svg>
